<svg width="39" height="39" viewBox="0 0 39 39" fill="none" xmlns="http://www.w3.org/2000/svg">
<path d="M19.5 9.90039C19.8912 9.90039 20.2664 10.0554 20.543 10.332C20.8196 10.6086 20.9746 10.9838 20.9746 11.375V18.0254H27.625C28.0162 18.0254 28.3914 18.1804 28.668 18.457C28.9446 18.7336 29.0996 19.1088 29.0996 19.5C29.0996 19.8912 28.9446 20.2664 28.668 20.543C28.3914 20.8196 28.0162 20.9746 27.625 20.9746H20.9746V27.625C20.9746 28.0162 20.8196 28.3914 20.543 28.668C20.2664 28.9446 19.8912 29.0996 19.5 29.0996C19.1088 29.0996 18.7336 28.9446 18.457 28.668C18.1804 28.3914 18.0254 28.0162 18.0254 27.625V20.9746H11.375C10.9838 20.9746 10.6086 20.8196 10.332 20.543C10.0554 20.2664 9.90039 19.8912 9.90039 19.5C9.90039 19.1088 10.0554 18.7336 10.332 18.457C10.6086 18.1804 10.9838 18.0254 11.375 18.0254H18.0254V11.375C18.0254 10.9838 18.1804 10.6086 18.457 10.332C18.7336 10.0554 19.1088 9.90039 19.5 9.90039Z" fill="#C59F26" stroke="#39311D" stroke-width="0.3"/>
</svg>
