<svg width="263" height="82" viewBox="0 0 263 82" fill="none" xmlns="http://www.w3.org/2000/svg">
<g clip-path="url(#clip0_252_1733)">
<path d="M16.8879 81.9957C16.2084 81.9957 15.5452 81.9874 14.871 81.9728C13.4743 81.9553 12.0809 81.8384 10.7021 81.6231C9.41655 81.4103 8.17114 81.0145 7.00702 80.4486C5.85357 79.8875 4.80153 79.1516 3.8912 78.2694C2.9677 77.3975 2.19884 76.3862 1.61509 75.2757C1.02492 74.158 0.616479 72.9599 0.404008 71.7232C0.174558 70.3944 0.050416 69.0507 0.0326526 67.7038C0.0185121 67.2517 0 65.7464 0 65.7464V16.2262C0 16.2262 0.0197165 14.7441 0.0327641 14.3086C0.0497725 12.9639 0.173193 11.6223 0.401956 10.2955C0.614819 9.05544 1.02357 7.8539 1.61407 6.7325C2.19567 5.62275 2.96026 4.61075 3.8782 3.73575C4.79511 2.85243 5.85051 2.11282 7.00593 1.5439C8.16738 0.979862 9.41042 0.586795 10.6934 0.377866C12.0767 0.160425 13.475 0.0428652 14.8765 0.0261743L16.889 0H246.1L248.137 0.0272248C249.525 0.0430863 250.911 0.159597 252.282 0.375765C253.578 0.587315 254.834 0.983124 256.008 1.55018C258.323 2.69672 260.206 4.51065 261.395 6.73773C261.976 7.85139 262.378 9.04312 262.588 10.2725C262.82 11.6101 262.949 12.9623 262.976 14.3181C262.982 14.9251 262.982 15.5773 262.982 16.2262C263 17.0301 263 17.7953 263 18.5667V63.431C263 64.2098 263 64.9698 262.982 65.7359C262.982 66.433 262.982 67.0716 262.974 67.7289C262.948 69.0605 262.82 70.3885 262.593 71.7022C262.384 72.9478 261.978 74.1552 261.388 75.2821C260.8 76.3806 260.036 77.3831 259.123 78.2526C258.212 79.1397 257.158 79.8798 256.002 80.4446C254.83 81.0148 253.576 81.4121 252.282 81.6231C250.903 81.8396 249.509 81.9564 248.113 81.9728C247.459 81.9874 246.775 81.9957 246.111 81.9957L243.693 82L16.8879 81.9957Z" fill="#111111"/>
<path d="M54.6218 15C54.7382 15 54.8545 15 54.9775 15C55.2629 18.5261 53.917 21.1608 52.2813 23.0688C50.6763 24.9636 48.4785 26.8013 44.9239 26.5224C44.6868 23.0468 46.0349 20.6075 47.6684 18.7039C49.1833 16.9299 51.9607 15.3513 54.6218 15Z" fill="white"/>
<path d="M65.3823 51.7014C65.3823 51.7366 65.3823 51.7673 65.3823 51.8002C64.3833 54.8257 62.9584 57.4187 61.2195 59.8251C59.6321 62.0097 57.6868 64.9496 54.2134 64.9496C51.212 64.9496 49.2184 63.0197 46.1424 62.967C42.8886 62.9143 41.0992 64.5807 38.1242 65.0001C37.7839 65.0001 37.4435 65.0001 37.1098 65.0001C34.9252 64.6839 33.1622 62.9538 31.8777 61.3949C28.0904 56.7886 25.1636 50.8386 24.6191 43.2243C24.6191 42.4778 24.6191 41.7335 24.6191 40.987C24.8497 35.5375 27.4975 31.1069 31.0171 28.9596C32.8745 27.8179 35.428 26.8452 38.2713 27.28C39.4898 27.4688 40.7347 27.8859 41.8259 28.2987C42.86 28.6961 44.1532 29.4009 45.3784 29.3636C46.2083 29.3394 47.0338 28.9069 47.8704 28.6017C50.3206 27.7169 52.7226 26.7025 55.8886 27.179C59.6936 27.7542 62.3941 29.4448 64.0628 32.0532C60.8441 34.1016 58.2994 37.1886 58.7341 42.4602C59.1205 47.2488 61.9045 50.0503 65.3823 51.7014Z" fill="white"/>
<path d="M80.7681 65L89.9841 42.6H92.5441L101.696 65H97.7281L90.5601 46.856H91.9041L84.6721 65H80.7681ZM85.3121 60.68V57.48H97.1841V60.68H85.3121ZM112.645 65.32C111.471 65.32 110.426 65.0747 109.509 64.584C108.591 64.072 107.866 63.3787 107.333 62.504C106.821 61.6293 106.565 60.6373 106.565 59.528V55.112C106.565 54.0027 106.831 53.0107 107.365 52.136C107.898 51.2613 108.623 50.5787 109.541 50.088C110.458 49.576 111.493 49.32 112.645 49.32C114.031 49.32 115.279 49.6827 116.389 50.408C117.519 51.112 118.405 52.072 119.045 53.288C119.706 54.4827 120.037 55.8373 120.037 57.352C120.037 58.8453 119.706 60.2 119.045 61.416C118.405 62.6107 117.519 63.56 116.389 64.264C115.279 64.968 114.031 65.32 112.645 65.32ZM112.069 61.992C112.922 61.992 113.669 61.8 114.309 61.416C114.97 61.0107 115.482 60.456 115.845 59.752C116.229 59.048 116.421 58.2373 116.421 57.32C116.421 56.4027 116.229 55.592 115.845 54.888C115.482 54.184 114.97 53.64 114.309 53.256C113.669 52.8507 112.922 52.648 112.069 52.648C111.215 52.648 110.458 52.8507 109.797 53.256C109.135 53.64 108.623 54.184 108.261 54.888C107.898 55.592 107.717 56.4027 107.717 57.32C107.717 58.2373 107.898 59.048 108.261 59.752C108.623 60.456 109.135 61.0107 109.797 61.416C110.458 61.8 111.215 61.992 112.069 61.992ZM104.421 71.4V49.64H107.941V53.768L107.333 57.512L107.941 61.224V71.4H104.421ZM131.207 65.32C130.034 65.32 128.989 65.0747 128.071 64.584C127.154 64.072 126.429 63.3787 125.895 62.504C125.383 61.6293 125.127 60.6373 125.127 59.528V55.112C125.127 54.0027 125.394 53.0107 125.927 52.136C126.461 51.2613 127.186 50.5787 128.103 50.088C129.021 49.576 130.055 49.32 131.207 49.32C132.594 49.32 133.842 49.6827 134.951 50.408C136.082 51.112 136.967 52.072 137.607 53.288C138.269 54.4827 138.599 55.8373 138.599 57.352C138.599 58.8453 138.269 60.2 137.607 61.416C136.967 62.6107 136.082 63.56 134.951 64.264C133.842 64.968 132.594 65.32 131.207 65.32ZM130.631 61.992C131.485 61.992 132.231 61.8 132.871 61.416C133.533 61.0107 134.045 60.456 134.407 59.752C134.791 59.048 134.983 58.2373 134.983 57.32C134.983 56.4027 134.791 55.592 134.407 54.888C134.045 54.184 133.533 53.64 132.871 53.256C132.231 52.8507 131.485 52.648 130.631 52.648C129.778 52.648 129.021 52.8507 128.359 53.256C127.698 53.64 127.186 54.184 126.823 54.888C126.461 55.592 126.279 56.4027 126.279 57.32C126.279 58.2373 126.461 59.048 126.823 59.752C127.186 60.456 127.698 61.0107 128.359 61.416C129.021 61.8 129.778 61.992 130.631 61.992ZM122.983 71.4V49.64H126.503V53.768L125.895 57.512L126.503 61.224V71.4H122.983ZM154.672 65.32C152.901 65.32 151.397 65 150.16 64.36C148.923 63.72 147.813 62.7813 146.832 61.544L149.328 59.048C149.947 59.944 150.683 60.648 151.536 61.16C152.389 61.6507 153.477 61.896 154.8 61.896C156.037 61.896 157.019 61.64 157.744 61.128C158.491 60.616 158.864 59.912 158.864 59.016C158.864 58.2693 158.672 57.6613 158.288 57.192C157.904 56.7227 157.392 56.3387 156.752 56.04C156.133 55.72 155.44 55.4427 154.672 55.208C153.925 54.952 153.168 54.6747 152.4 54.376C151.653 54.056 150.96 53.6613 150.32 53.192C149.701 52.7227 149.2 52.1147 148.816 51.368C148.432 50.6213 148.24 49.672 148.24 48.52C148.24 47.1973 148.56 46.0773 149.2 45.16C149.861 44.2213 150.747 43.5067 151.856 43.016C152.965 42.5253 154.203 42.28 155.568 42.28C157.04 42.28 158.352 42.568 159.504 43.144C160.677 43.72 161.627 44.456 162.352 45.352L159.856 47.848C159.216 47.1227 158.544 46.5893 157.84 46.248C157.157 45.8853 156.368 45.704 155.472 45.704C154.363 45.704 153.488 45.928 152.848 46.376C152.229 46.824 151.92 47.4533 151.92 48.264C151.92 48.9467 152.112 49.5013 152.496 49.928C152.88 50.3333 153.381 50.6853 154 50.984C154.64 51.2613 155.333 51.528 156.08 51.784C156.848 52.04 157.605 52.328 158.352 52.648C159.12 52.968 159.813 53.384 160.432 53.896C161.072 54.3867 161.584 55.0267 161.968 55.816C162.352 56.6053 162.544 57.5973 162.544 58.792C162.544 60.7973 161.829 62.3867 160.4 63.56C158.992 64.7333 157.083 65.32 154.672 65.32ZM168.069 65V43.24H171.589V65H168.069ZM164.389 52.84V49.64H175.269V52.84H164.389ZM184.43 65.32C182.936 65.32 181.582 64.968 180.366 64.264C179.15 63.5387 178.179 62.568 177.454 61.352C176.75 60.136 176.398 58.7813 176.398 57.288C176.398 55.7947 176.75 54.4507 177.454 53.256C178.179 52.0613 179.15 51.112 180.366 50.408C181.582 49.6827 182.936 49.32 184.43 49.32C185.944 49.32 187.31 49.672 188.526 50.376C189.742 51.08 190.702 52.04 191.406 53.256C192.131 54.4507 192.494 55.7947 192.494 57.288C192.494 58.7813 192.131 60.136 191.406 61.352C190.702 62.568 189.742 63.5387 188.526 64.264C187.31 64.968 185.944 65.32 184.43 65.32ZM184.43 61.928C185.304 61.928 186.072 61.736 186.734 61.352C187.416 60.9467 187.939 60.392 188.302 59.688C188.686 58.984 188.878 58.184 188.878 57.288C188.878 56.392 188.686 55.6027 188.302 54.92C187.918 54.2373 187.395 53.704 186.734 53.32C186.072 52.9147 185.304 52.712 184.43 52.712C183.576 52.712 182.808 52.9147 182.126 53.32C181.464 53.704 180.942 54.2373 180.558 54.92C180.195 55.6027 180.014 56.392 180.014 57.288C180.014 58.184 180.195 58.984 180.558 59.688C180.942 60.392 181.464 60.9467 182.126 61.352C182.808 61.736 183.576 61.928 184.43 61.928ZM195.421 65V49.64H198.941V65H195.421ZM198.941 56.456L197.725 55.848C197.725 53.9067 198.151 52.3387 199.005 51.144C199.879 49.928 201.191 49.32 202.941 49.32C203.709 49.32 204.402 49.4587 205.021 49.736C205.639 50.0133 206.215 50.4613 206.749 51.08L204.445 53.448C204.167 53.1493 203.858 52.936 203.517 52.808C203.175 52.68 202.781 52.616 202.333 52.616C201.351 52.616 200.541 52.9253 199.901 53.544C199.261 54.1627 198.941 55.1333 198.941 56.456ZM215.119 65.32C213.583 65.32 212.197 64.9787 210.959 64.296C209.743 63.592 208.773 62.632 208.047 61.416C207.343 60.2 206.991 58.8347 206.991 57.32C206.991 55.8053 207.343 54.4507 208.047 53.256C208.751 52.04 209.701 51.08 210.895 50.376C212.111 49.672 213.455 49.32 214.927 49.32C216.357 49.32 217.615 49.6507 218.703 50.312C219.813 50.9733 220.677 51.88 221.295 53.032C221.935 54.184 222.255 55.496 222.255 56.968C222.255 57.224 222.234 57.4907 222.191 57.768C222.17 58.024 222.127 58.312 222.063 58.632H209.455V55.752H220.239L218.927 56.904C218.885 55.9653 218.703 55.176 218.383 54.536C218.063 53.896 217.605 53.4053 217.007 53.064C216.431 52.7227 215.717 52.552 214.863 52.552C213.967 52.552 213.189 52.744 212.527 53.128C211.866 53.512 211.354 54.056 210.991 54.76C210.629 55.4427 210.447 56.264 210.447 57.224C210.447 58.184 210.639 59.0267 211.023 59.752C211.407 60.4773 211.951 61.0427 212.655 61.448C213.359 61.832 214.17 62.024 215.087 62.024C215.877 62.024 216.602 61.8853 217.263 61.608C217.946 61.3307 218.522 60.9253 218.991 60.392L221.231 62.664C220.485 63.5387 219.578 64.2 218.511 64.648C217.445 65.096 216.314 65.32 215.119 65.32Z" fill="white"/>
<path d="M82.5921 31.9999V30.4519H86.0661C86.9901 30.4519 87.8001 30.2539 88.4961 29.8579C89.1921 29.4499 89.7321 28.8919 90.1161 28.1839C90.5121 27.4759 90.7101 26.6599 90.7101 25.7359C90.7101 24.8239 90.5121 24.0139 90.1161 23.3059C89.7201 22.5979 89.1741 22.0459 88.4781 21.6499C87.7821 21.2539 86.9781 21.0559 86.0661 21.0559H82.6101V19.5079H86.1021C87.0141 19.5079 87.8541 19.6639 88.6221 19.9759C89.4021 20.2879 90.0741 20.7259 90.6381 21.2899C91.2141 21.8539 91.6581 22.5139 91.9701 23.2699C92.2941 24.0259 92.4561 24.8539 92.4561 25.7539C92.4561 26.6419 92.2941 27.4699 91.9701 28.2379C91.6581 28.9939 91.2201 29.6539 90.6561 30.2179C90.0921 30.7819 89.4201 31.2199 88.6401 31.5319C87.8721 31.8439 87.0381 31.9999 86.1381 31.9999H82.5921ZM81.4761 31.9999V19.5079H83.1681V31.9999H81.4761ZM98.4183 32.1799C97.5783 32.1799 96.8223 31.9819 96.1503 31.5859C95.4783 31.1899 94.9443 30.6559 94.5483 29.9839C94.1523 29.2999 93.9543 28.5379 93.9543 27.6979C93.9543 26.8699 94.1523 26.1259 94.5483 25.4659C94.9443 24.7939 95.4783 24.2599 96.1503 23.8639C96.8223 23.4679 97.5783 23.2699 98.4183 23.2699C99.2463 23.2699 99.9963 23.4679 100.668 23.8639C101.352 24.2479 101.892 24.7759 102.288 25.4479C102.684 26.1199 102.882 26.8699 102.882 27.6979C102.882 28.5379 102.684 29.2999 102.288 29.9839C101.892 30.6559 101.352 31.1899 100.668 31.5859C99.9963 31.9819 99.2463 32.1799 98.4183 32.1799ZM98.4183 30.6139C98.9583 30.6139 99.4383 30.4879 99.8583 30.2359C100.278 29.9839 100.608 29.6419 100.848 29.2099C101.088 28.7659 101.208 28.2619 101.208 27.6979C101.208 27.1459 101.082 26.6539 100.83 26.2219C100.59 25.7899 100.26 25.4539 99.8403 25.2139C99.4323 24.9619 98.9583 24.8359 98.4183 24.8359C97.8783 24.8359 97.3983 24.9619 96.9783 25.2139C96.5583 25.4539 96.2283 25.7899 95.9883 26.2219C95.7483 26.6539 95.6283 27.1459 95.6283 27.6979C95.6283 28.2619 95.7483 28.7659 95.9883 29.2099C96.2283 29.6419 96.5583 29.9839 96.9783 30.2359C97.3983 30.4879 97.8783 30.6139 98.4183 30.6139ZM106.909 31.9999L103.525 23.4499H105.217L107.665 30.1099H107.125L109.555 23.4499H110.491L112.921 30.1099H112.381L114.829 23.4499H116.521L113.155 31.9999H112.201L109.735 25.5379H110.329L107.845 31.9999H106.909ZM124.009 31.9999V27.0139C124.009 26.3659 123.805 25.8319 123.397 25.4119C122.989 24.9919 122.461 24.7819 121.813 24.7819C121.381 24.7819 120.997 24.8779 120.661 25.0699C120.325 25.2619 120.061 25.5259 119.869 25.8619C119.677 26.1979 119.581 26.5819 119.581 27.0139L118.915 26.6359C118.915 25.9879 119.059 25.4119 119.347 24.9079C119.635 24.4039 120.037 24.0079 120.553 23.7199C121.069 23.4199 121.651 23.2699 122.299 23.2699C122.947 23.2699 123.517 23.4319 124.009 23.7559C124.513 24.0799 124.909 24.5059 125.197 25.0339C125.485 25.5499 125.629 26.1019 125.629 26.6899V31.9999H124.009ZM117.961 31.9999V23.4499H119.581V31.9999H117.961ZM127.823 31.9999V19.1479H129.443V31.9999H127.823ZM135.719 32.1799C134.879 32.1799 134.123 31.9819 133.451 31.5859C132.779 31.1899 132.245 30.6559 131.849 29.9839C131.453 29.2999 131.255 28.5379 131.255 27.6979C131.255 26.8699 131.453 26.1259 131.849 25.4659C132.245 24.7939 132.779 24.2599 133.451 23.8639C134.123 23.4679 134.879 23.2699 135.719 23.2699C136.547 23.2699 137.297 23.4679 137.969 23.8639C138.653 24.2479 139.193 24.7759 139.589 25.4479C139.985 26.1199 140.183 26.8699 140.183 27.6979C140.183 28.5379 139.985 29.2999 139.589 29.9839C139.193 30.6559 138.653 31.1899 137.969 31.5859C137.297 31.9819 136.547 32.1799 135.719 32.1799ZM135.719 30.6139C136.259 30.6139 136.739 30.4879 137.159 30.2359C137.579 29.9839 137.909 29.6419 138.149 29.2099C138.389 28.7659 138.509 28.2619 138.509 27.6979C138.509 27.1459 138.383 26.6539 138.131 26.2219C137.891 25.7899 137.561 25.4539 137.141 25.2139C136.733 24.9619 136.259 24.8359 135.719 24.8359C135.179 24.8359 134.699 24.9619 134.279 25.2139C133.859 25.4539 133.529 25.7899 133.289 26.2219C133.049 26.6539 132.929 27.1459 132.929 27.6979C132.929 28.2619 133.049 28.7659 133.289 29.2099C133.529 29.6419 133.859 29.9839 134.279 30.2359C134.699 30.4879 135.179 30.6139 135.719 30.6139ZM145.644 32.1799C144.864 32.1799 144.156 31.9879 143.52 31.6039C142.884 31.2079 142.38 30.6739 142.008 30.0019C141.648 29.3299 141.468 28.5739 141.468 27.7339C141.468 26.8939 141.648 26.1379 142.008 25.4659C142.38 24.7939 142.878 24.2599 143.502 23.8639C144.138 23.4679 144.852 23.2699 145.644 23.2699C146.292 23.2699 146.868 23.4079 147.372 23.6839C147.888 23.9479 148.302 24.3199 148.614 24.7999C148.926 25.2679 149.1 25.8139 149.136 26.4379V29.0119C149.1 29.6239 148.926 30.1699 148.614 30.6499C148.314 31.1299 147.906 31.5079 147.39 31.7839C146.886 32.0479 146.304 32.1799 145.644 32.1799ZM145.914 30.6499C146.718 30.6499 147.366 30.3799 147.858 29.8399C148.35 29.2879 148.596 28.5859 148.596 27.7339C148.596 27.1459 148.482 26.6359 148.254 26.2039C148.038 25.7599 147.726 25.4179 147.318 25.1779C146.91 24.9259 146.436 24.7999 145.896 24.7999C145.356 24.7999 144.876 24.9259 144.456 25.1779C144.048 25.4299 143.724 25.7779 143.484 26.2219C143.256 26.6539 143.142 27.1519 143.142 27.7159C143.142 28.2919 143.256 28.8019 143.484 29.2459C143.724 29.6779 144.054 30.0199 144.474 30.2719C144.894 30.5239 145.374 30.6499 145.914 30.6499ZM148.488 31.9999V29.6959L148.794 27.6079L148.488 25.5379V23.4499H150.126V31.9999H148.488ZM156.103 32.1799C155.311 32.1799 154.603 31.9879 153.979 31.6039C153.355 31.2079 152.857 30.6739 152.485 30.0019C152.125 29.3299 151.945 28.5739 151.945 27.7339C151.945 26.8939 152.125 26.1379 152.485 25.4659C152.857 24.7939 153.355 24.2599 153.979 23.8639C154.603 23.4679 155.311 23.2699 156.103 23.2699C156.739 23.2699 157.315 23.4079 157.831 23.6839C158.347 23.9479 158.761 24.3199 159.073 24.7999C159.397 25.2679 159.577 25.8139 159.613 26.4379V29.0119C159.577 29.6239 159.403 30.1699 159.091 30.6499C158.779 31.1299 158.365 31.5079 157.849 31.7839C157.333 32.0479 156.751 32.1799 156.103 32.1799ZM156.373 30.6499C156.913 30.6499 157.381 30.5239 157.777 30.2719C158.185 30.0199 158.503 29.6779 158.731 29.2459C158.959 28.8019 159.073 28.2979 159.073 27.7339C159.073 27.1459 158.953 26.6359 158.713 26.2039C158.485 25.7719 158.167 25.4299 157.759 25.1779C157.363 24.9259 156.895 24.7999 156.355 24.7999C155.815 24.7999 155.341 24.9259 154.933 25.1779C154.525 25.4299 154.201 25.7779 153.961 26.2219C153.733 26.6539 153.619 27.1519 153.619 27.7159C153.619 28.2919 153.733 28.8019 153.961 29.2459C154.201 29.6779 154.525 30.0199 154.933 30.2719C155.353 30.5239 155.833 30.6499 156.373 30.6499ZM160.603 31.9999H158.965V29.6959L159.271 27.6079L158.965 25.5379V19.1479H160.603V31.9999ZM170.612 32.1799C169.772 32.1799 169.016 31.9819 168.344 31.5859C167.672 31.1899 167.138 30.6559 166.742 29.9839C166.346 29.2999 166.148 28.5379 166.148 27.6979C166.148 26.8699 166.346 26.1259 166.742 25.4659C167.138 24.7939 167.672 24.2599 168.344 23.8639C169.016 23.4679 169.772 23.2699 170.612 23.2699C171.44 23.2699 172.19 23.4679 172.862 23.8639C173.546 24.2479 174.086 24.7759 174.482 25.4479C174.878 26.1199 175.076 26.8699 175.076 27.6979C175.076 28.5379 174.878 29.2999 174.482 29.9839C174.086 30.6559 173.546 31.1899 172.862 31.5859C172.19 31.9819 171.44 32.1799 170.612 32.1799ZM170.612 30.6139C171.152 30.6139 171.632 30.4879 172.052 30.2359C172.472 29.9839 172.802 29.6419 173.042 29.2099C173.282 28.7659 173.402 28.2619 173.402 27.6979C173.402 27.1459 173.276 26.6539 173.024 26.2219C172.784 25.7899 172.454 25.4539 172.034 25.2139C171.626 24.9619 171.152 24.8359 170.612 24.8359C170.072 24.8359 169.592 24.9619 169.172 25.2139C168.752 25.4539 168.422 25.7899 168.182 26.2219C167.942 26.6539 167.822 27.1459 167.822 27.6979C167.822 28.2619 167.942 28.7659 168.182 29.2099C168.422 29.6419 168.752 29.9839 169.172 30.2359C169.592 30.4879 170.072 30.6139 170.612 30.6139ZM182.949 31.9999V27.0139C182.949 26.3659 182.745 25.8319 182.337 25.4119C181.929 24.9919 181.401 24.7819 180.753 24.7819C180.321 24.7819 179.937 24.8779 179.601 25.0699C179.265 25.2619 179.001 25.5259 178.809 25.8619C178.617 26.1979 178.521 26.5819 178.521 27.0139L177.855 26.6359C177.855 25.9879 177.999 25.4119 178.287 24.9079C178.575 24.4039 178.977 24.0079 179.493 23.7199C180.009 23.4199 180.591 23.2699 181.239 23.2699C181.887 23.2699 182.457 23.4319 182.949 23.7559C183.453 24.0799 183.849 24.5059 184.137 25.0339C184.425 25.5499 184.569 26.1019 184.569 26.6899V31.9999H182.949ZM176.901 31.9999V23.4499H178.521V31.9999H176.901ZM191.82 31.9999V19.8679H193.44V31.9999H191.82ZM189.714 24.9259V23.4499H195.546V24.9259H189.714ZM203.181 31.9999V27.0139C203.181 26.3659 202.977 25.8319 202.569 25.4119C202.161 24.9919 201.633 24.7819 200.985 24.7819C200.553 24.7819 200.169 24.8779 199.833 25.0699C199.497 25.2619 199.233 25.5259 199.041 25.8619C198.849 26.1979 198.753 26.5819 198.753 27.0139L198.087 26.6359C198.087 25.9879 198.231 25.4119 198.519 24.9079C198.807 24.4039 199.209 24.0079 199.725 23.7199C200.241 23.4199 200.823 23.2699 201.471 23.2699C202.119 23.2699 202.689 23.4139 203.181 23.7019C203.685 23.9899 204.081 24.3919 204.369 24.9079C204.657 25.4239 204.801 26.0179 204.801 26.6899V31.9999H203.181ZM197.133 31.9999V19.1479H198.753V31.9999H197.133ZM210.955 32.1799C210.103 32.1799 209.335 31.9879 208.651 31.6039C207.967 31.2079 207.427 30.6739 207.031 30.0019C206.635 29.3299 206.437 28.5679 206.437 27.7159C206.437 26.8759 206.629 26.1199 207.013 25.4479C207.409 24.7759 207.937 24.2479 208.597 23.8639C209.269 23.4679 210.019 23.2699 210.847 23.2699C211.639 23.2699 212.335 23.4499 212.935 23.8099C213.547 24.1699 214.021 24.6679 214.357 25.3039C214.705 25.9399 214.879 26.6599 214.879 27.4639C214.879 27.5839 214.873 27.7159 214.861 27.8599C214.849 27.9919 214.825 28.1479 214.789 28.3279H207.571V26.9779H213.925L213.331 27.4999C213.331 26.9239 213.229 26.4379 213.025 26.0419C212.821 25.6339 212.533 25.3219 212.161 25.1059C211.789 24.8779 211.339 24.7639 210.811 24.7639C210.259 24.7639 209.773 24.8839 209.353 25.1239C208.933 25.3639 208.609 25.6999 208.381 26.1319C208.153 26.5639 208.039 27.0739 208.039 27.6619C208.039 28.2619 208.159 28.7899 208.399 29.2459C208.639 29.6899 208.981 30.0379 209.425 30.2899C209.869 30.5299 210.379 30.6499 210.955 30.6499C211.435 30.6499 211.873 30.5659 212.269 30.3979C212.677 30.2299 213.025 29.9779 213.313 29.6419L214.357 30.7039C213.949 31.1839 213.445 31.5499 212.845 31.8019C212.257 32.0539 211.627 32.1799 210.955 32.1799Z" fill="white"/>
</g>
<defs>
<clipPath id="clip0_252_1733">
<rect width="263" height="82" fill="white"/>
</clipPath>
</defs>
</svg>
