<svg width="39" height="39" viewBox="0 0 39 39" fill="none" xmlns="http://www.w3.org/2000/svg">
<path d="M13 19.5V13C13 11.2761 13.6848 9.62279 14.9038 8.40381C16.1228 7.18482 17.7761 6.5 19.5 6.5C21.2239 6.5 22.8772 7.18482 24.0962 8.40381C25.3152 9.62279 26 11.2761 26 13V19.5" stroke="#C59F26" stroke-width="2" stroke-linecap="round"/>
<path d="M6.00349 20.5855C6.23911 17.7564 6.35774 16.3426 7.29049 15.483C8.22324 14.6234 9.64349 14.625 12.4824 14.625H26.5207C29.358 14.625 30.7782 14.625 31.711 15.483C32.6437 16.341 32.7624 17.7564 32.998 20.5855L33.8332 30.6052C33.9697 32.2514 34.038 33.0753 33.557 33.6001C33.0727 34.125 32.2472 34.125 30.593 34.125H8.40849C6.75586 34.125 5.92874 34.125 5.44611 33.6001C4.96349 33.0753 5.03174 32.2514 5.16986 30.6052L6.00349 20.5855Z" stroke="#C59F26" stroke-width="2"/>
</svg>
