<svg width="85" height="85" viewBox="0 0 85 85" fill="none" xmlns="http://www.w3.org/2000/svg">
<circle cx="42.5" cy="42.5" r="40.5" stroke="#C59F26" stroke-width="4"/>
<path d="M41.7783 15.4097C49.0826 15.418 56.0833 18.2643 61.2451 23.3208C66.2455 28.2191 69.125 34.8038 69.3076 41.7075L69.3164 42.3765C69.3162 47.7071 67.703 52.919 64.6787 57.353C61.654 61.7874 57.3534 65.2453 52.3203 67.2876C47.2871 69.3299 41.7482 69.864 36.4043 68.8228C31.0606 67.7815 26.1533 65.2119 22.3027 61.4399C18.4522 57.668 15.8303 52.8632 14.7686 47.6343C13.7069 42.4057 14.2522 36.986 16.335 32.0601C18.418 27.1339 21.9459 22.9208 26.4746 19.9565C30.8619 17.0849 35.9973 15.5103 41.2676 15.4146L41.7783 15.4097ZM50.5498 21.6118C46.3612 19.9124 41.7526 19.4682 37.3066 20.3345C32.8606 21.2008 28.7749 23.3389 25.5674 26.481C22.3597 29.6231 20.1746 33.6285 19.2891 37.9897C18.4035 42.351 18.8579 46.8714 20.5947 50.979C22.3316 55.0865 25.2722 58.5959 29.043 61.064C32.8135 63.5319 37.2455 64.8481 41.7783 64.8481H41.7793C47.8552 64.8413 53.6821 62.4738 57.9814 58.2622C62.2811 54.0502 64.702 48.3376 64.709 42.3765V42.3755C64.709 37.9285 63.3627 33.5821 60.8418 29.8862C58.3209 26.1906 54.7386 23.3114 50.5498 21.6118ZM41.7783 26.396C42.3926 26.396 42.9798 26.6356 43.4111 27.0581C43.842 27.4802 44.082 28.0507 44.082 28.6431V41.814L44.1436 41.9263L48.0176 49.0054C48.3041 49.5296 48.3658 50.1435 48.1904 50.7114C48.0149 51.2794 47.6157 51.7594 47.0762 52.0425C46.5362 52.3257 45.9019 52.3874 45.3145 52.2134C44.7271 52.0393 44.2369 51.6442 43.9502 51.1196L39.7441 43.4321C39.5672 43.1062 39.475 42.7434 39.4746 42.3755V28.6431C39.4746 28.0507 39.7148 27.4802 40.1455 27.0581C40.5768 26.6356 41.1641 26.396 41.7783 26.396Z" fill="#C59F26" stroke="#14110A"/>
</svg>
