<svg width="47" height="46" viewBox="0 0 47 46" fill="none" xmlns="http://www.w3.org/2000/svg">
<path d="M1.5 22.8871C1.5 25.6957 2.05698 28.4768 3.13913 31.0716C4.22128 33.6664 5.80741 36.0241 7.80697 38.0101C9.80652 39.996 12.1803 41.5714 14.7929 42.6462C17.4054 43.721 20.2055 44.2742 23.0333 44.2742C25.8611 44.2742 28.6612 43.721 31.2738 42.6462C33.8863 41.5714 36.2601 39.996 38.2597 38.0101C40.2592 36.0241 41.8454 33.6664 42.9275 31.0716C44.0097 28.4768 44.5667 25.6957 44.5667 22.8871C44.5667 17.2149 42.298 11.775 38.2597 7.76414C34.2214 3.75328 28.7443 1.5 23.0333 1.5C17.3223 1.5 11.8452 3.75328 7.80697 7.76414C3.76868 11.775 1.5 17.2149 1.5 22.8871Z" stroke="#C59F26" stroke-width="3" stroke-linecap="round" stroke-linejoin="round"/>
<path d="M23.0332 11.0054V22.8871L30.211 30.0162" stroke="#C59F26" stroke-width="2" stroke-linecap="round" stroke-linejoin="round"/>
</svg>
