<svg width="39" height="39" viewBox="0 0 39 39" fill="none" xmlns="http://www.w3.org/2000/svg">
<path d="M28.1373 2.55926C27.2004 2.58211 26.1873 2.94773 25.1818 3.70183L26.0045 4.79871C27.1014 3.97605 28.023 3.82371 28.7391 3.98367C29.4475 4.14363 30.0035 4.63113 30.3006 5.29383C30.9023 6.61922 30.5596 8.59207 27.7793 9.70418L27.3451 9.87937V13.3147H28.7162V10.7858C31.6641 9.39187 32.4334 6.66492 31.5498 4.73015C31.0852 3.70945 30.1939 2.90203 29.0361 2.64305C28.7467 2.58211 28.4496 2.55164 28.1373 2.55926ZM11.0748 2.5623C10.1379 2.58668 9.1248 2.94849 8.11934 3.70183L8.94199 4.79871C10.0389 3.97529 10.9605 3.82599 11.6766 3.98596C12.385 4.14592 12.941 4.63418 13.2381 5.29535C13.8398 6.61845 13.4971 8.59207 10.7168 9.70418L10.2826 9.87937V13.3147H11.6537V10.7858C14.6016 9.39187 15.3709 6.66492 14.4873 4.72863C14.0227 3.71402 13.1314 2.90736 11.9736 2.64838C11.6842 2.58363 11.3871 2.55392 11.0748 2.5623ZM6.77871 14.6858V16.971H15.1576V14.6858H6.77871ZM23.8412 14.6858V16.971H32.2201V14.6858H23.8412ZM9.54375 18.3421L5.30859 23.636L10.9682 37.7811L16.6277 23.636L12.3926 18.3421H9.54375ZM26.6062 18.3421L22.3711 23.636L28.0307 37.7811L33.6902 23.636L29.4551 18.3421H26.6062ZM10.2826 19.6065V21.9983L7.89082 22.5925L10.2826 19.6065ZM11.6537 19.6065L14.0379 22.5925L11.6537 21.9983V19.6065ZM27.3451 19.6065V21.9983L24.9533 22.5925L27.3451 19.6065ZM28.7162 19.6065L31.1004 22.5925L28.7162 21.9983V19.6065ZM10.2826 23.4075V32.3805L7.02246 24.2225L10.2826 23.4075ZM11.6537 23.4075L14.9139 24.2225L11.6537 32.3805V23.4075ZM27.3451 23.4075V32.3805L24.085 24.2225L27.3451 23.4075ZM28.7162 23.4075L31.9764 24.2225L28.7162 32.3805V23.4075Z" fill="#C59F26"/>
</svg>
