<svg width="85" height="85" viewBox="0 0 85 85" fill="none" xmlns="http://www.w3.org/2000/svg">
<path d="M42.5 7.96875C43.2045 7.96875 43.8801 8.2486 44.3783 8.74675C44.8764 9.24489 45.1562 9.92052 45.1562 10.625V15.0521H60.2083C60.9128 15.0521 61.5884 15.3319 62.0866 15.8301C62.5847 16.3282 62.8646 17.0039 62.8646 17.7083C62.8646 18.4128 62.5847 19.0884 62.0866 19.5866C61.5884 20.0847 60.9128 20.3646 60.2083 20.3646H45.1562V39.8438H51.3542C55.3462 39.8438 59.1748 41.4296 61.9976 44.2524C64.8204 47.0752 66.4062 50.9038 66.4062 54.8958C66.4062 58.8879 64.8204 62.7164 61.9976 65.5393C59.1748 68.3621 55.3462 69.9479 51.3542 69.9479H45.1562V74.375C45.1562 75.0795 44.8764 75.7551 44.3783 76.2533C43.8801 76.7514 43.2045 77.0312 42.5 77.0312C41.7955 77.0312 41.1199 76.7514 40.6217 76.2533C40.1236 75.7551 39.8438 75.0795 39.8438 74.375V69.9479H21.25C20.5455 69.9479 19.8699 69.6681 19.3717 69.1699C18.8736 68.6718 18.5938 67.9962 18.5938 67.2917C18.5938 66.5872 18.8736 65.9116 19.3717 65.4134C19.8699 64.9153 20.5455 64.6354 21.25 64.6354H39.8438V45.1562H33.6458C29.6538 45.1562 25.8252 43.5704 23.0024 40.7476C20.1796 37.9248 18.5938 34.0962 18.5938 30.1042C18.5938 26.1121 20.1796 22.2836 23.0024 19.4607C25.8252 16.6379 29.6538 15.0521 33.6458 15.0521H39.8438V10.625C39.8438 9.92052 40.1236 9.24489 40.6217 8.74675C41.1199 8.2486 41.7955 7.96875 42.5 7.96875ZM39.8438 20.3646H33.6458C31.0627 20.3646 28.5854 21.3907 26.7589 23.2172C24.9324 25.0438 23.9062 27.5211 23.9062 30.1042C23.9062 32.6873 24.9324 35.1646 26.7589 36.9911C28.5854 38.8176 31.0627 39.8438 33.6458 39.8438H39.8438V20.3646ZM45.1562 45.1562V64.6354H51.3542C53.9373 64.6354 56.4146 63.6093 58.2411 61.7828C60.0676 59.9562 61.0938 57.4789 61.0938 54.8958C61.0938 52.3127 60.0676 49.8354 58.2411 48.0089C56.4146 46.1824 53.9373 45.1562 51.3542 45.1562H45.1562Z" fill="#C59F26"/>
</svg>
