<svg width="43" height="43" viewBox="0 0 43 43" fill="none" xmlns="http://www.w3.org/2000/svg">
<g clip-path="url(#clip0_252_1598)">
<path d="M2.29736 22.8855C3.23821 25.79 5.81282 27.7673 8.65967 27.7673C11.5065 27.7673 14.0811 25.79 15.022 22.8855L15.0854 22.6892H2.23389L2.29736 22.8855ZM8.94971 13.2771L3.93018 20.364L3.76318 20.6003H13.9487L13.7983 20.3689L9.19775 13.282L9.07764 13.0964L8.94971 13.2771ZM27.3208 15.4587C28.2617 18.3631 30.8363 20.3396 33.6831 20.3396C36.5299 20.3396 39.1045 18.3631 40.0454 15.4587L40.1089 15.2625H27.2573L27.3208 15.4587ZM33.5112 6.75464L29.2466 12.9382L29.0845 13.1736H37.7847L37.6401 12.9441L33.7622 6.7605L33.6411 6.56714L33.5112 6.75464ZM21.0991 6.90112C20.7418 6.90122 20.3988 7.04269 20.146 7.29468C19.8931 7.54677 19.7515 7.88913 19.7515 8.24585C19.7515 8.60236 19.8933 8.94403 20.146 9.19604C20.3988 9.44804 20.7418 9.5895 21.0991 9.5896C21.4566 9.5896 21.8003 9.44812 22.0532 9.19604C22.3058 8.94404 22.4477 8.6023 22.4478 8.24585C22.4478 7.88919 22.3061 7.54676 22.0532 7.29468C21.8003 7.0426 21.4566 6.90112 21.0991 6.90112ZM20.0513 11.5193L19.9507 11.4841C19.1995 11.2191 18.5639 10.7028 18.1519 10.0232L18.0933 9.92651L17.9849 9.95581L10.978 11.8181L10.7788 11.8708L10.8911 12.0447L16.4019 20.532L16.4458 20.6003H17.4956C17.4854 21.3428 17.3936 22.0823 17.2192 22.8044C16.2353 26.8652 12.7703 29.8562 8.65967 29.8562C4.54904 29.8562 1.08402 26.8652 0.100098 22.8044C-0.0743099 22.0822 -0.166077 21.3428 -0.17627 20.6003H1.19678L1.2417 20.5369L8.2583 10.6296C8.39989 10.4296 8.60762 10.2845 8.84521 10.2214L17.5767 7.9021L17.6724 7.87671L17.686 7.77808C17.7721 7.15388 18.0288 6.56445 18.4282 6.07593C18.8276 5.58743 19.3545 5.21769 19.9507 5.00757L20.0513 4.97241V0.0349121H22.1479V4.97144L22.2476 5.00659C22.8127 5.20695 23.3106 5.54805 23.6978 5.98999L23.7583 6.05933L23.8462 6.03687L33.4224 3.65015H33.4233C33.5715 3.61249 33.7262 3.60735 33.8765 3.6355C33.9891 3.65661 34.0973 3.69597 34.1968 3.75171L34.2935 3.81323C34.4122 3.89743 34.5097 4.00224 34.5854 4.12866L34.5864 4.13159L40.2124 13.1033L40.2563 13.1736H42.519C42.5081 13.9339 42.4135 14.6715 42.2427 15.3767C41.2589 19.4376 37.7939 22.4294 33.6831 22.4294C29.5723 22.4294 26.1073 19.4376 25.1235 15.3767C24.9492 14.6547 24.8574 13.9158 24.8472 13.1736H26.5405L26.5845 13.1082L31.0249 6.67163L31.2505 6.34546L30.8657 6.44116L24.6577 7.98804L24.5425 8.01636L24.5435 8.13452L24.5444 8.24683C24.5446 8.95662 24.3247 9.64949 23.9136 10.2292C23.5024 10.8091 22.9204 11.2473 22.2485 11.4841L22.1479 11.5193V38.2566H25.7437V40.6453H32.9341V42.7341H9.26514V40.6453H16.4556V38.2566H20.0513V11.5193Z" fill="#C59F26" stroke="#39311D" stroke-width="0.3"/>
</g>
<defs>
<clipPath id="clip0_252_1598">
<rect width="43" height="43" fill="white"/>
</clipPath>
</defs>
</svg>
