<svg width="17" height="17" viewBox="0 0 17 17" fill="none" xmlns="http://www.w3.org/2000/svg">
<path d="M11.2705 3.15039C13.3694 3.15039 15.0164 4.78994 15.0166 6.89551C15.0166 8.18139 14.4384 9.36365 13.3906 10.6455C12.3412 11.9294 10.8367 13.2955 9.00977 14.9521L8.08301 15.7939L7.15723 14.9521C5.33037 13.2956 3.82578 11.9294 2.77637 10.6455C1.7286 9.36364 1.15039 8.1814 1.15039 6.89551C1.15056 4.79004 2.79677 3.15056 4.89551 3.15039C6.08266 3.15039 7.22509 3.70368 7.96973 4.57129L8.08301 4.7041L8.19727 4.57129C8.94184 3.70376 10.0835 3.15049 11.2705 3.15039ZM11.2705 4.2666C10.1578 4.26674 9.07449 4.96451 8.64453 5.93848H7.52246C7.09249 4.96435 6.00834 4.2666 4.89551 4.2666C3.39627 4.26677 2.26676 5.39627 2.2666 6.89551C2.2666 7.97439 2.85223 9.02644 3.83496 10.1758C4.81915 11.3268 6.22468 12.6019 7.9043 14.126L7.98242 14.1963L8.08789 14.293L8.25488 14.126C9.93794 12.602 11.345 11.3268 12.3301 10.1758C13.3137 9.02641 13.9004 7.97442 13.9004 6.89551C13.9002 5.39616 12.7699 4.2666 11.2705 4.2666Z" fill="#DBDBDB" stroke="#111111" stroke-width="0.3"/>
</svg>
