<svg width="28" height="28" viewBox="0 0 28 28" fill="none" xmlns="http://www.w3.org/2000/svg">
<path d="M13.9999 2.33337C11.6925 2.33337 9.43684 3.01761 7.51827 4.29956C5.5997 5.58151 4.10435 7.4036 3.22133 9.5354C2.33831 11.6672 2.10727 14.013 2.55743 16.2761C3.00759 18.5392 4.11873 20.618 5.75034 22.2496C7.38196 23.8812 9.46076 24.9924 11.7239 25.4425C13.987 25.8927 16.3328 25.6617 18.4646 24.7786C20.5964 23.8956 22.4185 22.4003 23.7004 20.4817C24.9823 18.5631 25.6666 16.3075 25.6666 14C25.663 10.9069 24.4328 7.94153 22.2456 5.75437C20.0584 3.56721 17.093 2.33691 13.9999 2.33337ZM13.9999 23.3334C12.154 23.3334 10.3495 22.786 8.8146 21.7604C7.27974 20.7349 6.08347 19.2772 5.37705 17.5718C4.67063 15.8663 4.4858 13.9897 4.84593 12.1792C5.20606 10.3687 6.09497 8.70567 7.40026 7.40038C8.70555 6.09509 10.3686 5.20617 12.1791 4.84605C13.9896 4.48592 15.8662 4.67075 17.5716 5.37717C19.2771 6.08358 20.7347 7.27986 21.7603 8.81472C22.7859 10.3496 23.3333 12.1541 23.3333 14C23.3304 16.4745 22.3462 18.8468 20.5965 20.5966C18.8467 22.3463 16.4744 23.3305 13.9999 23.3334ZM15.1666 13.7072V8.16671C15.1666 7.85729 15.0437 7.56054 14.8249 7.34175C14.6061 7.12296 14.3093 7.00004 13.9999 7.00004C13.6905 7.00004 13.3938 7.12296 13.175 7.34175C12.9562 7.56054 12.8333 7.85729 12.8333 8.16671V14C12.8334 14.1922 12.8808 14.3813 12.9711 14.5509L14.7211 17.8162C14.8672 18.0891 15.1157 18.2927 15.412 18.3823C15.7082 18.472 16.0279 18.4403 16.3008 18.2942C16.5736 18.1481 16.7773 17.8995 16.8669 17.6033C16.9566 17.3071 16.9248 16.9873 16.7787 16.7145L15.1666 13.7072Z" fill="#C59F26"/>
</svg>
