<svg width="39" height="39" viewBox="0 0 39 39" fill="none" xmlns="http://www.w3.org/2000/svg">
<path d="M19.6963 23.7568C20.1801 24.4825 20.8636 25.5686 21.4248 26.6309C21.7055 27.1622 21.9521 27.6819 22.1279 28.1436C22.3069 28.6135 22.4004 28.9909 22.4004 29.25C22.4004 30.2397 22.0328 30.9561 21.502 31.4287C20.9645 31.907 20.2378 32.1543 19.5 32.1543C18.7622 32.1543 18.0355 31.907 17.498 31.4287C16.9672 30.9561 16.5996 30.2397 16.5996 29.25C16.5996 28.9909 16.6931 28.6135 16.8721 28.1436C17.0479 27.6819 17.2945 27.1622 17.5752 26.6309C18.1364 25.5686 18.8199 24.4825 19.3037 23.7568L19.5 23.4619L19.6963 23.7568ZM6.96777 8.47461C7.15313 15.234 12.6961 20.6621 19.5 20.6621C26.3039 20.6621 31.8469 15.234 32.0322 8.47461H34.5801C34.3212 16.4311 27.9717 22.8842 19.9727 23.2129L19.5 23.2314L19.0273 23.2129C11.0283 22.8842 4.67882 16.4311 4.41992 8.47461H6.96777Z" fill="#C59F26" stroke="#39311D" stroke-width="0.7"/>
</svg>
