<svg width="18" height="18" viewBox="0 0 18 18" fill="none" xmlns="http://www.w3.org/2000/svg">
<g clip-path="url(#clip0_252_1617)">
<path fill-rule="evenodd" clip-rule="evenodd" d="M11.7803 8.46976C11.9209 8.61041 11.9999 8.80114 11.9999 9.00001C11.9999 9.19889 11.9209 9.38962 11.7803 9.53026L7.53751 13.773C7.46833 13.8446 7.38557 13.9018 7.29407 13.9411C7.20256 13.9804 7.10415 14.0011 7.00456 14.002C6.90498 14.0028 6.80622 13.9838 6.71405 13.9461C6.62188 13.9084 6.53814 13.8527 6.46772 13.7823C6.3973 13.7119 6.34161 13.6282 6.3039 13.536C6.26619 13.4438 6.24721 13.345 6.24808 13.2455C6.24894 13.1459 6.26963 13.0475 6.30894 12.956C6.34824 12.8645 6.40538 12.7817 6.47701 12.7125L10.1895 9.00001L6.47701 5.28751C6.34039 5.14606 6.2648 4.95661 6.26651 4.75996C6.26822 4.56331 6.34709 4.37521 6.48615 4.23615C6.6252 4.09709 6.81331 4.01822 7.00996 4.01651C7.20661 4.0148 7.39606 4.09039 7.53751 4.22701L11.7803 8.46976Z" fill="url(#paint0_linear_252_1617)"/>
</g>
<defs>
<linearGradient id="paint0_linear_252_1617" x1="10.369" y1="5.70633" x2="6.75426" y2="5.95391" gradientUnits="userSpaceOnUse">
<stop stop-color="#B18325"/>
<stop offset="1" stop-color="#D7BF75"/>
</linearGradient>
<clipPath id="clip0_252_1617">
<rect width="18" height="18" fill="white"/>
</clipPath>
</defs>
</svg>
