<svg width="263" height="82" viewBox="0 0 263 82" fill="none" xmlns="http://www.w3.org/2000/svg">
<g clip-path="url(#clip0_252_1739)">
<path d="M9.74074 81H253.259C258.017 81 262 76.8838 262 71.75V10.25C262 5.11617 258.017 1 253.259 1H9.74074C4.98303 1 1 5.11617 1 10.25V71.75C1 76.8838 4.98303 81 9.74074 81Z" fill="white" stroke="#D9DBE9" stroke-width="2"/>
<mask id="mask0_252_1739" style="mask-type:luminance" maskUnits="userSpaceOnUse" x="20" y="16" width="50" height="50">
<path d="M70 16H20V66H70V16Z" fill="white"/>
</mask>
<g mask="url(#mask0_252_1739)">
<path d="M47.5308 40.0043L23.3474 64.1878C22.1913 63.0942 21.5664 61.5944 21.5664 59.9697V22.0386C21.5664 20.3826 22.2225 18.8829 23.4098 17.7581L47.5308 40.0043Z" fill="#2196F3"/>
<path d="M68.434 41.0042C68.434 43.1913 67.2467 45.1285 65.2783 46.222L58.4044 50.0339L49.8746 42.1602L47.5312 40.0043L56.5611 30.9746L65.2783 35.7863C67.2467 36.8799 68.434 38.817 68.434 41.0042Z" fill="#FFC107"/>
<path d="M47.5311 40.0044L23.4102 17.7582C23.7226 17.4457 24.1288 17.1645 24.535 16.9145C26.5034 15.7272 28.878 15.696 30.9089 16.8208L56.5608 30.9747L47.5311 40.0044Z" fill="#4CAF50"/>
<path d="M58.4043 50.034L30.9089 65.1877C29.9403 65.7501 28.8467 66 27.7844 66C26.6596 66 25.5348 65.7188 24.535 65.0939C24.0975 64.844 23.6913 64.5315 23.3477 64.1878L47.5311 40.0044L49.8745 42.1603L58.4043 50.034Z" fill="#F44336"/>
</g>
<path d="M87.1279 32.1799C86.2519 32.1799 85.4299 32.0179 84.6619 31.6939C83.9059 31.3579 83.2399 30.8959 82.6639 30.3079C82.0999 29.7199 81.6559 29.0359 81.3319 28.2559C81.0079 27.4759 80.8459 26.6359 80.8459 25.7359C80.8459 24.8359 81.0079 24.0019 81.3319 23.2339C81.6559 22.4539 82.1059 21.7699 82.6819 21.1819C83.2579 20.5939 83.9299 20.1379 84.6979 19.8139C85.4779 19.4899 86.3239 19.3279 87.2359 19.3279C88.2319 19.3279 89.1499 19.5199 89.9899 19.9039C90.8299 20.2879 91.5319 20.8399 92.0959 21.5599L90.9259 22.7299C90.5299 22.1539 90.0079 21.7159 89.3599 21.4159C88.7119 21.1039 88.0039 20.9479 87.2359 20.9479C86.3239 20.9479 85.5139 21.1519 84.8059 21.5599C84.1099 21.9679 83.5639 22.5319 83.1679 23.2519C82.7839 23.9719 82.5919 24.7999 82.5919 25.7359C82.5919 26.6839 82.7899 27.5179 83.1859 28.2379C83.5819 28.9579 84.1159 29.5219 84.7879 29.9299C85.4599 30.3379 86.2279 30.5419 87.0919 30.5419C87.9679 30.5419 88.7239 30.3739 89.3599 30.0379C90.0079 29.7019 90.5059 29.2099 90.8539 28.5619C91.2019 27.9019 91.3759 27.0979 91.3759 26.1499L92.4019 26.8879H87.0019V25.3399H93.1219V25.5919C93.1219 27.0439 92.8639 28.2619 92.3479 29.2459C91.8439 30.2179 91.1359 30.9499 90.2239 31.4419C89.3239 31.9339 88.2919 32.1799 87.1279 32.1799ZM99.0698 32.1799C98.2178 32.1799 97.4498 31.9879 96.7658 31.6039C96.0818 31.2079 95.5418 30.6739 95.1458 30.0019C94.7498 29.3299 94.5518 28.5679 94.5518 27.7159C94.5518 26.8759 94.7438 26.1199 95.1278 25.4479C95.5238 24.7759 96.0518 24.2479 96.7118 23.8639C97.3838 23.4679 98.1338 23.2699 98.9618 23.2699C99.7538 23.2699 100.45 23.4499 101.05 23.8099C101.662 24.1699 102.136 24.6679 102.472 25.3039C102.82 25.9399 102.994 26.6599 102.994 27.4639C102.994 27.5839 102.988 27.7159 102.976 27.8599C102.964 27.9919 102.94 28.1479 102.904 28.3279H95.6858V26.9779H102.04L101.446 27.4999C101.446 26.9239 101.344 26.4379 101.14 26.0419C100.936 25.6339 100.648 25.3219 100.276 25.1059C99.9038 24.8779 99.4538 24.7639 98.9258 24.7639C98.3738 24.7639 97.8878 24.8839 97.4678 25.1239C97.0478 25.3639 96.7238 25.6999 96.4958 26.1319C96.2678 26.5639 96.1538 27.0739 96.1538 27.6619C96.1538 28.2619 96.2738 28.7899 96.5138 29.2459C96.7538 29.6899 97.0958 30.0379 97.5398 30.2899C97.9838 30.5299 98.4938 30.6499 99.0698 30.6499C99.5498 30.6499 99.9879 30.5659 100.384 30.3979C100.792 30.2299 101.14 29.9779 101.428 29.6419L102.472 30.7039C102.064 31.1839 101.56 31.5499 100.96 31.8019C100.372 32.0539 99.7418 32.1799 99.0698 32.1799ZM105.811 31.9999V19.8679H107.431V31.9999H105.811ZM103.705 24.9259V23.4499H109.537V24.9259H103.705ZM114.886 31.9999V23.4499H116.506V31.9999H114.886ZM115.696 21.7399C115.396 21.7399 115.15 21.6439 114.958 21.4519C114.766 21.2479 114.67 20.9959 114.67 20.6959C114.67 20.4079 114.766 20.1679 114.958 19.9759C115.15 19.7719 115.396 19.6699 115.696 19.6699C115.996 19.6699 116.242 19.7719 116.434 19.9759C116.626 20.1679 116.722 20.4079 116.722 20.6959C116.722 20.9959 116.626 21.2479 116.434 21.4519C116.242 21.6439 115.996 21.7399 115.696 21.7399ZM120.207 31.9999V19.8679H121.827V31.9999H120.207ZM118.101 24.9259V23.4499H123.933V24.9259H118.101ZM133.17 32.1799C132.33 32.1799 131.574 31.9819 130.902 31.5859C130.23 31.1899 129.696 30.6559 129.3 29.9839C128.904 29.2999 128.706 28.5379 128.706 27.6979C128.706 26.8699 128.904 26.1259 129.3 25.4659C129.696 24.7939 130.23 24.2599 130.902 23.8639C131.574 23.4679 132.33 23.2699 133.17 23.2699C133.998 23.2699 134.748 23.4679 135.42 23.8639C136.104 24.2479 136.644 24.7759 137.04 25.4479C137.436 26.1199 137.634 26.8699 137.634 27.6979C137.634 28.5379 137.436 29.2999 137.04 29.9839C136.644 30.6559 136.104 31.1899 135.42 31.5859C134.748 31.9819 133.998 32.1799 133.17 32.1799ZM133.17 30.6139C133.71 30.6139 134.19 30.4879 134.61 30.2359C135.03 29.9839 135.36 29.6419 135.6 29.2099C135.84 28.7659 135.96 28.2619 135.96 27.6979C135.96 27.1459 135.834 26.6539 135.582 26.2219C135.342 25.7899 135.012 25.4539 134.592 25.2139C134.184 24.9619 133.71 24.8359 133.17 24.8359C132.63 24.8359 132.15 24.9619 131.73 25.2139C131.31 25.4539 130.98 25.7899 130.74 26.2219C130.5 26.6539 130.38 27.1459 130.38 27.6979C130.38 28.2619 130.5 28.7659 130.74 29.2099C130.98 29.6419 131.31 29.9839 131.73 30.2359C132.15 30.4879 132.63 30.6139 133.17 30.6139ZM145.507 31.9999V27.0139C145.507 26.3659 145.303 25.8319 144.895 25.4119C144.487 24.9919 143.959 24.7819 143.311 24.7819C142.879 24.7819 142.495 24.8779 142.159 25.0699C141.823 25.2619 141.559 25.5259 141.367 25.8619C141.175 26.1979 141.079 26.5819 141.079 27.0139L140.413 26.6359C140.413 25.9879 140.557 25.4119 140.845 24.9079C141.133 24.4039 141.535 24.0079 142.051 23.7199C142.567 23.4199 143.149 23.2699 143.797 23.2699C144.445 23.2699 145.015 23.4319 145.507 23.7559C146.011 24.0799 146.407 24.5059 146.695 25.0339C146.983 25.5499 147.127 26.1019 147.127 26.6899V31.9999H145.507ZM139.459 31.9999V23.4499H141.079V31.9999H139.459Z" fill="#2F2F2F"/>
<path d="M92.544 65.32C91.008 65.32 89.5573 65.0213 88.192 64.424C86.8267 63.8267 85.632 63.0053 84.608 61.96C83.584 60.8933 82.7733 59.6667 82.176 58.28C81.6 56.872 81.312 55.368 81.312 53.768C81.312 52.168 81.6 50.6747 82.176 49.288C82.7733 47.9013 83.584 46.6853 84.608 45.64C85.6533 44.5733 86.8693 43.752 88.256 43.176C89.664 42.5787 91.1787 42.28 92.8 42.28C94.5707 42.28 96.2133 42.6213 97.728 43.304C99.2427 43.9867 100.512 44.9573 101.536 46.216L99.04 48.712C98.3787 47.7733 97.4933 47.0587 96.384 46.568C95.2747 46.056 94.08 45.8 92.8 45.8C91.264 45.8 89.9093 46.1413 88.736 46.824C87.584 47.4853 86.688 48.4133 86.048 49.608C85.408 50.8027 85.088 52.1893 85.088 53.768C85.088 55.3467 85.408 56.744 86.048 57.96C86.7093 59.1547 87.5947 60.0933 88.704 60.776C89.8133 61.4587 91.072 61.8 92.48 61.8C93.9733 61.8 95.2533 61.5333 96.32 61C97.408 60.4453 98.24 59.6347 98.816 58.568C99.392 57.48 99.68 56.1467 99.68 54.568L101.984 56.232H92.416V52.872H103.488V53.384C103.488 56.0507 103.008 58.2693 102.048 60.04C101.109 61.8107 99.8187 63.1333 98.176 64.008C96.5333 64.8827 94.656 65.32 92.544 65.32ZM113.711 65.32C112.217 65.32 110.863 64.968 109.647 64.264C108.431 63.5387 107.46 62.568 106.735 61.352C106.031 60.136 105.679 58.7813 105.679 57.288C105.679 55.7947 106.031 54.4507 106.735 53.256C107.46 52.0613 108.431 51.112 109.647 50.408C110.863 49.6827 112.217 49.32 113.711 49.32C115.225 49.32 116.591 49.672 117.807 50.376C119.023 51.08 119.983 52.04 120.687 53.256C121.412 54.4507 121.775 55.7947 121.775 57.288C121.775 58.7813 121.412 60.136 120.687 61.352C119.983 62.568 119.023 63.5387 117.807 64.264C116.591 64.968 115.225 65.32 113.711 65.32ZM113.711 61.928C114.585 61.928 115.353 61.736 116.015 61.352C116.697 60.9467 117.22 60.392 117.583 59.688C117.967 58.984 118.159 58.184 118.159 57.288C118.159 56.392 117.967 55.6027 117.583 54.92C117.199 54.2373 116.676 53.704 116.015 53.32C115.353 52.9147 114.585 52.712 113.711 52.712C112.857 52.712 112.089 52.9147 111.407 53.32C110.745 53.704 110.223 54.2373 109.839 54.92C109.476 55.6027 109.295 56.392 109.295 57.288C109.295 58.184 109.476 58.984 109.839 59.688C110.223 60.392 110.745 60.9467 111.407 61.352C112.089 61.736 112.857 61.928 113.711 61.928ZM131.742 65.32C130.249 65.32 128.894 64.968 127.678 64.264C126.462 63.5387 125.491 62.568 124.766 61.352C124.062 60.136 123.71 58.7813 123.71 57.288C123.71 55.7947 124.062 54.4507 124.766 53.256C125.491 52.0613 126.462 51.112 127.678 50.408C128.894 49.6827 130.249 49.32 131.742 49.32C133.257 49.32 134.622 49.672 135.838 50.376C137.054 51.08 138.014 52.04 138.718 53.256C139.443 54.4507 139.806 55.7947 139.806 57.288C139.806 58.7813 139.443 60.136 138.718 61.352C138.014 62.568 137.054 63.5387 135.838 64.264C134.622 64.968 133.257 65.32 131.742 65.32ZM131.742 61.928C132.617 61.928 133.385 61.736 134.046 61.352C134.729 60.9467 135.251 60.392 135.614 59.688C135.998 58.984 136.19 58.184 136.19 57.288C136.19 56.392 135.998 55.6027 135.614 54.92C135.23 54.2373 134.707 53.704 134.046 53.32C133.385 52.9147 132.617 52.712 131.742 52.712C130.889 52.712 130.121 52.9147 129.438 53.32C128.777 53.704 128.254 54.2373 127.87 54.92C127.507 55.6027 127.326 56.392 127.326 57.288C127.326 58.184 127.507 58.984 127.87 59.688C128.254 60.392 128.777 60.9467 129.438 61.352C130.121 61.736 130.889 61.928 131.742 61.928ZM149.133 71.72C147.512 71.72 146.093 71.4213 144.877 70.824C143.661 70.248 142.68 69.4267 141.933 68.36L144.237 66.056C144.856 66.824 145.56 67.4 146.349 67.784C147.139 68.168 148.088 68.36 149.197 68.36C150.584 68.36 151.683 67.9973 152.493 67.272C153.304 66.568 153.709 65.5973 153.709 64.36V60.584L154.317 57.192L153.709 53.768V49.64H157.229V64.36C157.229 65.832 156.888 67.112 156.205 68.2C155.523 69.3093 154.573 70.1733 153.357 70.792C152.141 71.4107 150.733 71.72 149.133 71.72ZM148.973 64.68C147.608 64.68 146.371 64.3493 145.261 63.688C144.173 63.0053 143.309 62.0773 142.669 60.904C142.051 59.7307 141.741 58.4187 141.741 56.968C141.741 55.5173 142.051 54.216 142.669 53.064C143.309 51.912 144.173 51.0053 145.261 50.344C146.371 49.6613 147.608 49.32 148.973 49.32C150.189 49.32 151.256 49.5653 152.173 50.056C153.091 50.5467 153.805 51.2293 154.317 52.104C154.829 52.9573 155.085 53.96 155.085 55.112V58.888C155.085 60.0187 154.819 61.0213 154.285 61.896C153.773 62.7707 153.059 63.4533 152.141 63.944C151.224 64.4347 150.168 64.68 148.973 64.68ZM149.677 61.352C150.531 61.352 151.277 61.1707 151.917 60.808C152.557 60.4453 153.048 59.944 153.389 59.304C153.752 58.6427 153.933 57.8747 153.933 57C153.933 56.1253 153.752 55.368 153.389 54.728C153.048 54.0667 152.557 53.5547 151.917 53.192C151.277 52.8293 150.531 52.648 149.677 52.648C148.824 52.648 148.067 52.8293 147.405 53.192C146.765 53.5547 146.264 54.0667 145.901 54.728C145.539 55.368 145.357 56.1253 145.357 57C145.357 57.8533 145.539 58.6107 145.901 59.272C146.264 59.9333 146.765 60.4453 147.405 60.808C148.067 61.1707 148.824 61.352 149.677 61.352ZM161.14 65V41.96H164.66V65H161.14ZM175.713 65.32C174.177 65.32 172.79 64.9787 171.553 64.296C170.337 63.592 169.366 62.632 168.641 61.416C167.937 60.2 167.585 58.8347 167.585 57.32C167.585 55.8053 167.937 54.4507 168.641 53.256C169.345 52.04 170.294 51.08 171.489 50.376C172.705 49.672 174.049 49.32 175.521 49.32C176.95 49.32 178.209 49.6507 179.297 50.312C180.406 50.9733 181.27 51.88 181.889 53.032C182.529 54.184 182.849 55.496 182.849 56.968C182.849 57.224 182.828 57.4907 182.785 57.768C182.764 58.024 182.721 58.312 182.657 58.632H170.049V55.752H180.833L179.521 56.904C179.478 55.9653 179.297 55.176 178.977 54.536C178.657 53.896 178.198 53.4053 177.601 53.064C177.025 52.7227 176.31 52.552 175.457 52.552C174.561 52.552 173.782 52.744 173.121 53.128C172.46 53.512 171.948 54.056 171.585 54.76C171.222 55.4427 171.041 56.264 171.041 57.224C171.041 58.184 171.233 59.0267 171.617 59.752C172.001 60.4773 172.545 61.0427 173.249 61.448C173.953 61.832 174.764 62.024 175.681 62.024C176.47 62.024 177.196 61.8853 177.857 61.608C178.54 61.3307 179.116 60.9253 179.585 60.392L181.825 62.664C181.078 63.5387 180.172 64.2 179.105 64.648C178.038 65.096 176.908 65.32 175.713 65.32ZM195.085 56.552V53.352H200.685C201.453 53.352 202.125 53.2027 202.701 52.904C203.298 52.584 203.768 52.1467 204.109 51.592C204.45 51.016 204.621 50.344 204.621 49.576C204.621 48.808 204.45 48.1467 204.109 47.592C203.768 47.016 203.298 46.5787 202.701 46.28C202.125 45.96 201.453 45.8 200.685 45.8H195.085V42.6H200.877C202.285 42.6 203.544 42.888 204.653 43.464C205.784 44.04 206.669 44.8507 207.309 45.896C207.97 46.9413 208.301 48.168 208.301 49.576C208.301 50.984 207.97 52.2107 207.309 53.256C206.669 54.3013 205.784 55.112 204.653 55.688C203.544 56.264 202.285 56.552 200.877 56.552H195.085ZM192.557 65V42.6H196.237V65H192.557ZM211.39 65V41.96H214.91V65H211.39ZM225.259 65.32C223.872 65.32 222.614 64.968 221.483 64.264C220.374 63.56 219.488 62.6107 218.827 61.416C218.187 60.2 217.867 58.8453 217.867 57.352C217.867 55.8373 218.187 54.4827 218.827 53.288C219.488 52.072 220.374 51.112 221.483 50.408C222.614 49.6827 223.872 49.32 225.259 49.32C226.432 49.32 227.467 49.576 228.363 50.088C229.28 50.5787 230.006 51.2613 230.539 52.136C231.072 53.0107 231.339 54.0027 231.339 55.112V59.528C231.339 60.6373 231.072 61.6293 230.539 62.504C230.027 63.3787 229.312 64.072 228.395 64.584C227.478 65.0747 226.432 65.32 225.259 65.32ZM225.835 61.992C227.136 61.992 228.182 61.5547 228.971 60.68C229.782 59.8053 230.187 58.6853 230.187 57.32C230.187 56.4027 230.006 55.592 229.643 54.888C229.28 54.184 228.768 53.64 228.107 53.256C227.467 52.8507 226.71 52.648 225.835 52.648C224.982 52.648 224.224 52.8507 223.563 53.256C222.923 53.64 222.411 54.184 222.027 54.888C221.664 55.592 221.483 56.4027 221.483 57.32C221.483 58.2373 221.664 59.048 222.027 59.752C222.411 60.456 222.923 61.0107 223.563 61.416C224.224 61.8 224.982 61.992 225.835 61.992ZM229.963 65V60.872L230.571 57.128L229.963 53.416V49.64H233.483V65H229.963ZM242.35 65.16L235.79 49.64H239.661L244.142 61.032H243.022L247.758 49.64H251.662L244.526 65.16H242.35ZM237.774 71.4L242.542 61.576L244.526 65.16L241.678 71.4H237.774Z" fill="#2F2F2F"/>
</g>
<defs>
<clipPath id="clip0_252_1739">
<rect width="263" height="82" fill="white"/>
</clipPath>
</defs>
</svg>
