<svg width="43" height="43" viewBox="0 0 43 43" fill="none" xmlns="http://www.w3.org/2000/svg">
<path d="M22 0.5C33.3111 0.5 42.5 9.89054 42.5 21.5C42.5 33.1095 33.3111 42.5 22 42.5C10.6889 42.5 1.5 33.1095 1.5 21.5C1.5 9.89054 10.6889 0.5 22 0.5ZM22 3.7998C17.4079 3.7998 13.0061 5.66763 9.7627 8.98828C6.51969 12.3085 4.7002 16.8094 4.7002 21.5C4.7002 26.1906 6.5197 30.6915 9.7627 34.0117C13.0061 37.3324 17.4079 39.2002 22 39.2002C26.5921 39.2002 30.9939 37.3324 34.2373 34.0117C37.4803 30.6915 39.2998 26.1906 39.2998 21.5C39.2998 16.8094 37.4803 12.3085 34.2373 8.98828C30.9939 5.66763 26.5921 3.7998 22 3.7998Z" fill="#C59F26" stroke="#39311D"/>
<path d="M21.9995 9.09985C22.42 9.09985 22.8264 9.27117 23.1274 9.57935C23.4286 9.88789 23.6001 10.3091 23.6001 10.7502V19.8499H32.4995C32.92 19.8499 33.3264 20.0212 33.6274 20.3293C33.9286 20.6379 34.1001 21.0591 34.1001 21.5002C34.1 21.9415 33.9288 22.3627 33.6274 22.6711C33.3264 22.9793 32.92 23.1497 32.4995 23.1497H23.6001V32.2502C23.6 32.6915 23.4288 33.1127 23.1274 33.4211C22.8264 33.7293 22.42 33.8997 21.9995 33.8997C21.5792 33.8996 21.1735 33.7291 20.8726 33.4211C20.5712 33.1127 20.4 32.6915 20.3999 32.2502V23.1497H11.4995C11.0792 23.1496 10.6735 22.9791 10.3726 22.6711C10.0712 22.3627 9.9 21.9415 9.8999 21.5002C9.8999 21.059 10.0713 20.6379 10.3726 20.3293C10.6735 20.0213 11.0792 19.85 11.4995 19.8499H20.3999V10.7502C20.3999 10.309 20.5713 9.8879 20.8726 9.57935C21.1735 9.27126 21.5792 9.09996 21.9995 9.09985Z" fill="#C59F26" stroke="#39311D"/>
</svg>
