<svg width="44" height="44" viewBox="0 0 44 44" fill="none" xmlns="http://www.w3.org/2000/svg">
<path d="M7.33337 33C7.33337 31.055 8.10599 29.1898 9.48126 27.8145C10.8565 26.4392 12.7218 25.6666 14.6667 25.6666H29.3334C31.2783 25.6666 33.1436 26.4392 34.5188 27.8145C35.8941 29.1898 36.6667 31.055 36.6667 33C36.6667 33.9724 36.2804 34.9051 35.5928 35.5927C34.9051 36.2803 33.9725 36.6666 33 36.6666H11C10.0276 36.6666 9.09495 36.2803 8.40732 35.5927C7.71968 34.9051 7.33337 33.9724 7.33337 33Z" stroke="#C59F26" stroke-width="1.5" stroke-linejoin="round"/>
<path d="M22 18.3333C25.0376 18.3333 27.5 15.8709 27.5 12.8333C27.5 9.79575 25.0376 7.33331 22 7.33331C18.9624 7.33331 16.5 9.79575 16.5 12.8333C16.5 15.8709 18.9624 18.3333 22 18.3333Z" stroke="#C59F26" stroke-width="1.5"/>
</svg>
