<svg width="39" height="39" viewBox="0 0 39 39" fill="none" xmlns="http://www.w3.org/2000/svg">
<path d="M19.5 0.299805C22.0659 0.299821 24.5872 0.903674 26.834 2.05176L27.2793 2.28906C28.296 2.85252 29.238 3.52513 30.0889 4.29102L19.5 14.2256L8.91016 4.29102C9.76108 3.52502 10.7029 2.85162 11.7197 2.28809C14.0762 0.9863 16.763 0.299805 19.5 0.299805ZM19.5 3.36035C17.713 3.36035 15.9479 3.73396 14.333 4.45508L13.9209 4.63867L14.25 4.94727L19.2949 9.68066L19.5 9.87305L19.7051 9.68066L24.75 4.94727L25.0791 4.63867L24.667 4.45508C23.0521 3.73397 21.287 3.36037 19.5 3.36035Z" fill="#C59F26" stroke="#39311D" stroke-width="0.6"/>
<path d="M31.8184 6.8999C33.9421 8.56192 35.6573 10.6343 36.8447 12.9761C38.0691 15.3907 38.703 18.0304 38.7002 20.7026V20.7036C38.7001 30.6235 30.1224 38.6997 19.5 38.6997C8.87764 38.6997 0.29991 30.6235 0.299805 20.7036V20.7026C0.297008 18.0304 0.930907 15.3907 2.15527 12.9761C3.34259 10.6346 5.05721 8.56184 7.18066 6.8999L9.50879 9.08545C7.02865 10.9679 5.20259 13.5092 4.27832 16.3862C3.31816 19.3751 3.37912 22.5713 4.45215 25.5259C5.52507 28.4801 7.55511 31.0417 10.2539 32.854C12.9525 34.6661 16.1854 35.6392 19.5 35.6392C22.8146 35.6392 26.0475 34.6661 28.7461 32.854C31.4449 31.0417 33.4749 28.4801 34.5479 25.5259C35.6209 22.5713 35.6818 19.3751 34.7217 16.3862C33.7973 13.5089 31.9707 10.968 29.4902 9.08545L31.8184 6.8999Z" fill="#C59F26" stroke="#39311D" stroke-width="0.6"/>
</svg>
