<svg width="40" height="40" viewBox="0 0 40 40" fill="none" xmlns="http://www.w3.org/2000/svg">
<path d="M19.5012 38.8035C16.9353 38.7898 14.4172 38.1725 12.1767 37.0125L11.7326 36.7728C10.7189 36.2039 9.78051 35.5263 8.93374 34.7559L19.5754 24.8779L30.1122 34.8687C29.2572 35.6302 28.3117 36.2985 27.292 36.8566C24.9286 38.1459 22.2382 38.818 19.5012 38.8035ZM19.5175 35.7429C21.3045 35.7525 23.0715 35.3883 24.6903 34.6758L25.1033 34.4944L24.7759 34.184L19.7562 29.4238L19.5522 29.2303L19.3461 29.4216L14.276 34.1281L13.9453 34.4349L14.3564 34.6207C15.9674 35.3504 17.7306 35.7334 19.5175 35.7429Z" fill="#C59F26" stroke="#39311D" stroke-width="0.6"/>
<path d="M7.2188 32.138C5.10395 30.4647 3.3998 28.3832 2.22486 26.0352C1.0133 23.6139 0.393473 20.9702 0.410581 18.2979C0.463503 8.37813 9.08413 0.347726 19.7064 0.404304C30.3286 0.460882 38.8632 8.58267 38.8104 18.5024C38.7991 21.1748 38.1511 23.8117 36.9138 26.22C35.7141 28.5551 33.9884 30.6187 31.8561 32.2693L29.5397 30.0714C32.0298 28.2021 33.8694 25.6706 34.809 22.7985C35.785 19.8149 35.7411 16.6183 34.6838 13.6581C33.6267 10.6982 31.6103 8.12585 28.9212 6.29917C26.2323 4.47271 23.0046 3.48246 19.6901 3.46481C16.3755 3.44715 13.1374 4.40296 10.4293 6.20068C7.72084 7.99861 5.67719 10.5493 4.58855 13.4978C3.4998 16.4466 3.42182 19.6425 4.36604 22.6364C5.27506 25.5186 7.08814 28.0692 9.55853 29.9649L7.2188 32.138Z" fill="#C59F26" stroke="#39311D" stroke-width="0.6"/>
</svg>
