<svg width="28" height="28" viewBox="0 0 28 28" fill="none" xmlns="http://www.w3.org/2000/svg">
<path d="M14.0001 19.8333C13.3812 19.8333 12.7878 19.5875 12.3502 19.1499C11.9126 18.7123 11.6667 18.1188 11.6667 17.5C11.6667 16.205 12.7051 15.1666 14.0001 15.1666C14.6189 15.1666 15.2124 15.4125 15.65 15.85C16.0876 16.2876 16.3334 16.8811 16.3334 17.5C16.3334 18.1188 16.0876 18.7123 15.65 19.1499C15.2124 19.5875 14.6189 19.8333 14.0001 19.8333ZM21.0001 23.3333V11.6666H7.00008V23.3333H21.0001ZM21.0001 9.33329C21.6189 9.33329 22.2124 9.57913 22.65 10.0167C23.0876 10.4543 23.3334 11.0478 23.3334 11.6666V23.3333C23.3334 23.9521 23.0876 24.5456 22.65 24.9832C22.2124 25.4208 21.6189 25.6666 21.0001 25.6666H7.00008C6.38124 25.6666 5.78775 25.4208 5.35017 24.9832C4.91258 24.5456 4.66675 23.9521 4.66675 23.3333V11.6666C4.66675 10.3716 5.70508 9.33329 7.00008 9.33329H8.16675V6.99996C8.16675 5.45286 8.78133 3.96913 9.87529 2.87517C10.9693 1.78121 12.453 1.16663 14.0001 1.16663C14.7661 1.16663 15.5247 1.31751 16.2324 1.61066C16.9401 1.90381 17.5832 2.33349 18.1249 2.87517C18.6665 3.41684 19.0962 4.05991 19.3894 4.76764C19.6825 5.47537 19.8334 6.23391 19.8334 6.99996V9.33329H21.0001ZM14.0001 3.49996C13.0718 3.49996 12.1816 3.86871 11.5252 4.52509C10.8688 5.18146 10.5001 6.0717 10.5001 6.99996V9.33329H17.5001V6.99996C17.5001 6.0717 17.1313 5.18146 16.475 4.52509C15.8186 3.86871 14.9283 3.49996 14.0001 3.49996Z" fill="#C59F26"/>
</svg>
