<svg width="85" height="85" viewBox="0 0 85 85" fill="none" xmlns="http://www.w3.org/2000/svg">
<path d="M42.5 4.04175C47.2643 4.03955 51.3133 5.71444 54.6758 9.0769C58.0384 12.4396 59.7126 16.4878 59.708 21.2498V28.8337H63.749C65.5632 28.8337 67.105 29.4739 68.4004 30.7693C69.6957 32.0646 70.3351 33.6046 70.333 35.4158V70.8337C70.3329 72.648 69.6925 74.1889 68.3994 75.4841C67.1068 76.779 65.5664 77.4189 63.75 77.4167H21.249C19.4349 77.4167 17.8953 76.7768 16.6025 75.4841C15.3905 74.2721 14.7509 72.8419 14.6738 71.1707L14.666 70.8328V35.4167C14.666 33.6026 15.3064 32.0622 16.6016 30.7693C17.8161 29.5569 19.2462 28.9186 20.9131 28.8416L21.25 28.8337H25.291V21.2498C25.2911 16.4828 26.9661 12.4347 30.3262 9.0769C33.6865 5.71897 37.7352 4.04405 42.5 4.04175ZM20.749 71.3337H64.249V34.9167H20.749V71.3337ZM42.498 46.5417C44.3182 46.5462 45.86 47.1879 47.1504 48.4783C48.4405 49.7685 49.0808 51.3085 49.083 53.1257C49.0852 54.9421 48.4451 56.4825 47.1504 57.7751C45.8551 59.0683 44.3134 59.7087 42.499 59.7087H42.4971C40.6949 59.7175 39.1554 59.0789 37.8525 57.7761C36.5496 56.4731 35.9094 54.9318 35.916 53.1267C35.9227 51.3188 36.5636 49.7772 37.8535 48.4763C39.1411 47.1778 40.6799 46.5374 42.498 46.5417ZM42.499 10.1248C39.4167 10.1248 36.7808 11.2101 34.6201 13.3708C32.4594 15.5316 31.3741 18.1674 31.374 21.2498V28.8337H53.624V21.2498C53.6239 18.1675 52.5395 15.5315 50.3789 13.3708C48.2181 11.21 45.5815 10.1248 42.499 10.1248Z" fill="#C59F26" stroke="#1B170C"/>
</svg>
