<svg width="39" height="39" viewBox="0 0 39 39" fill="none" xmlns="http://www.w3.org/2000/svg">
<path d="M25.5938 8.53125H13.4062C10.7139 8.53125 8.53125 10.7139 8.53125 13.4062V25.5938C8.53125 28.2861 10.7139 30.4688 13.4062 30.4688H25.5938C28.2861 30.4688 30.4688 28.2861 30.4688 25.5938V13.4062C30.4688 10.7139 28.2861 8.53125 25.5938 8.53125Z" stroke="#C59F26" stroke-width="2" stroke-linejoin="round"/>
<path d="M13.4062 8.53125V3.04688C13.4062 2.88526 13.4705 2.73026 13.5847 2.61598C13.699 2.5017 13.854 2.4375 14.0156 2.4375H24.9844C25.146 2.4375 25.301 2.5017 25.4153 2.61598C25.5295 2.73026 25.5938 2.88526 25.5938 3.04688V8.53125M25.5938 30.4688V35.9531C25.5938 36.1147 25.5295 36.2697 25.4153 36.384C25.301 36.4983 25.146 36.5625 24.9844 36.5625H14.0156C13.854 36.5625 13.699 36.4983 13.5847 36.384C13.4705 36.2697 13.4062 36.1147 13.4062 35.9531V30.4688" stroke="#C59F26" stroke-width="2" stroke-linejoin="round"/>
</svg>
